<?xml version="1.0" standalone="no"?>
<!DOCTYPE svg PUBLIC "-//W3C//DTD SVG 20010904//EN"
 "http://www.w3.org/TR/2001/REC-SVG-20010904/DTD/svg10.dtd">
<svg version="1.0" xmlns="http://www.w3.org/2000/svg"
 width="512.000000pt" height="512.000000pt" viewBox="0 0 512.000000 512.000000"
 preserveAspectRatio="xMidYMid meet">
<metadata>
Created by potrace 1.11, written by Peter Selinger 2001-2013
</metadata>
<g transform="translate(0.000000,512.000000) scale(0.100000,-0.100000)"
fill="#000000" stroke="none">
<path d="M120 3085 c0 -1534 -3 -1448 61 -1633 40 -114 145 -315 178 -342 3
-3 19 -22 34 -42 133 -178 433 -370 742 -474 l103 -34 217 0 c164 0 232 4 279
16 464 117 888 476 1022 865 49 144 52 173 52 714 0 279 2 508 3 510 2 1 67
-100 144 -226 77 -126 173 -282 212 -347 40 -64 82 -133 93 -152 27 -46 31
-53 265 -434 110 -179 205 -333 210 -343 6 -10 90 -150 188 -311 l179 -292
439 0 439 0 0 1350 0 1350 -32 1 c-18 0 -221 1 -451 2 -411 2 -417 2 -418 -18
0 -11 -1 -224 -1 -474 -1 -437 -2 -452 -19 -430 -10 13 -26 40 -37 59 -10 19
-72 125 -137 235 -65 110 -139 236 -165 280 -26 44 -69 118 -97 165 -28 47
-97 164 -153 260 -57 96 -115 195 -130 220 -15 25 -67 113 -115 195 -48 83
-122 209 -165 280 -42 72 -118 201 -170 288 l-92 157 -437 0 -438 0 0 -1277
c0 -703 -3 -1300 -7 -1328 -25 -197 -142 -349 -313 -406 -249 -83 -510 52
-595 310 l-22 66 -1 1315 -2 1315 -431 3 -432 2 0 -1395z"/>
<path d="M4079 4473 c-5 -42 0 -923 5 -931 4 -7 142 -11 451 -11 l445 0 0 474
0 475 -450 0 c-247 0 -450 -3 -451 -7z"/>
</g>
</svg>
